<svg width="47" height="47" viewBox="0 0 47 47" fill="none" xmlns="http://www.w3.org/2000/svg">
<circle cx="23.5" cy="23.5" r="23.5" transform="rotate(90 23.5 23.5)" fill="#346561"/>
<g clip-path="url(#clip0_2415_5671)">
<path d="M23.4998 15.6043C26.0716 15.6043 26.3764 15.614 27.3914 15.6607C28.3304 15.7036 28.8406 15.8601 29.1799 15.9925C29.6291 16.1671 29.9504 16.3762 30.2875 16.7133C30.6246 17.0504 30.833 17.371 31.0076 17.8209C31.1393 18.1603 31.2965 18.6704 31.3394 19.6095C31.3861 20.6252 31.3958 20.93 31.3958 23.501C31.3958 26.0721 31.3861 26.3776 31.3394 27.3926C31.2965 28.3317 31.14 28.8418 31.0076 29.1812C30.833 29.6304 30.6238 29.9517 30.2875 30.2887C29.9504 30.6258 29.6299 30.8343 29.1799 31.0088C28.8406 31.1405 28.3304 31.2978 27.3914 31.3406C26.3756 31.3873 26.0716 31.3971 23.4998 31.3971C20.928 31.3971 20.6232 31.3873 19.6082 31.3406C18.6692 31.2978 18.159 31.1413 17.8197 31.0088C17.3705 30.8343 17.0492 30.6251 16.7121 30.2887C16.375 29.9517 16.1666 29.6311 15.992 29.1812C15.8603 28.8418 15.7031 28.3317 15.6602 27.3926C15.6135 26.3768 15.6038 26.0721 15.6038 23.501C15.6038 20.93 15.6135 20.6245 15.6602 19.6095C15.7031 18.6704 15.8596 18.1603 15.992 17.8209C16.1666 17.3717 16.3758 17.0504 16.7121 16.7133C17.0492 16.3762 17.3697 16.1678 17.8197 15.9925C18.159 15.8608 18.6692 15.7036 19.6082 15.6607C20.624 15.614 20.9287 15.6043 23.4998 15.6043ZM23.4998 13.8691C20.8843 13.8691 20.5563 13.8804 19.5292 13.9271C18.5044 13.9737 17.8039 14.137 17.1914 14.3748C16.5578 14.6208 16.0206 14.9504 15.4856 15.4854C14.9499 16.0211 14.6211 16.5576 14.375 17.1911C14.1365 17.8044 13.9732 18.5041 13.9266 19.5297C13.8799 20.5568 13.8687 20.8848 13.8687 23.5003C13.8687 26.1157 13.8799 26.4438 13.9266 27.4709C13.9732 28.4957 14.1365 29.1962 14.3743 29.8087C14.6203 30.4422 14.9499 30.9795 15.4849 31.5145C16.0206 32.0502 16.5571 32.379 17.1906 32.6251C17.8031 32.8628 18.5036 33.0261 19.5285 33.0728C20.5555 33.1194 20.8836 33.1307 23.499 33.1307C26.1145 33.1307 26.4426 33.1194 27.4696 33.0728C28.4945 33.0261 29.195 32.8628 29.8074 32.6251C30.441 32.379 30.9782 32.0494 31.5132 31.5145C32.0489 30.9787 32.3778 30.4422 32.6238 29.8087C32.8616 29.1962 33.0249 28.4957 33.0715 27.4709C33.1182 26.4438 33.1294 26.1157 33.1294 23.5003C33.1294 20.8848 33.1182 20.5568 33.0715 19.5297C33.0249 18.5049 32.8616 17.8044 32.6238 17.1919C32.3778 16.5583 32.0482 16.0211 31.5132 15.4861C30.9775 14.9504 30.441 14.6216 29.8074 14.3755C29.195 14.1378 28.4945 13.9745 27.4696 13.9278C26.4426 13.8812 26.1145 13.8699 23.499 13.8699L23.4998 13.8691ZM23.4998 18.5545C20.7685 18.5545 18.5541 20.769 18.5541 23.5003C18.5541 26.2316 20.7685 28.446 23.4998 28.446C26.2311 28.446 28.4455 26.2316 28.4455 23.5003C28.4455 20.769 26.2311 18.5545 23.4998 18.5545ZM23.4998 26.7109C21.7271 26.7109 20.2892 25.2738 20.2892 23.5003C20.2892 21.7268 21.7263 20.2897 23.4998 20.2897C25.2733 20.2897 26.7104 21.7268 26.7104 23.5003C26.7104 25.2738 25.2733 26.7109 23.4998 26.7109ZM29.7969 18.3589C29.7969 18.997 29.2792 19.5146 28.6412 19.5146C28.0031 19.5146 27.4854 18.997 27.4854 18.3589C27.4854 17.7208 28.0031 17.2032 28.6412 17.2032C29.2792 17.2032 29.7969 17.7208 29.7969 18.3589Z" fill="white"/>
</g>
<defs>
<clipPath id="clip0_2415_5671">
<rect width="19.2623" height="19.2623" fill="white" transform="translate(13.8687 13.8691)"/>
</clipPath>
</defs>
</svg>
