<svg width="30" height="29" viewBox="0 0 30 29" fill="none" xmlns="http://www.w3.org/2000/svg">
<path d="M23.4569 10.6518C24.2856 10.0302 25.0315 9.28435 25.6116 8.41418C24.8657 8.74568 23.9956 8.99429 23.1254 9.07717C24.037 8.53849 24.7 7.70976 25.0315 6.67385C24.2028 7.17108 23.2497 7.54401 22.2967 7.7512C21.4679 6.88103 20.3492 6.38379 19.1061 6.38379C16.7027 6.38379 14.7552 8.33131 14.7552 10.7346C14.7552 11.0661 14.7967 11.3976 14.8795 11.7291C11.2745 11.5219 8.04248 9.78159 5.88778 7.17108C5.51485 7.79263 5.30767 8.53849 5.30767 9.36722C5.30767 10.8589 6.05353 12.1849 7.25519 12.9722C6.55077 12.9308 5.84634 12.765 5.26623 12.4335V12.475C5.26623 14.5882 6.75795 16.3286 8.74691 16.7429C8.41541 16.8258 8.00105 16.9087 7.62812 16.9087C7.33806 16.9087 7.08944 16.8672 6.79939 16.8258C7.33806 18.5661 8.95409 19.8092 10.8602 19.8507C9.36846 21.0109 7.50381 21.7153 5.47342 21.7153C5.10049 21.7153 4.76899 21.6739 4.4375 21.6325C6.34358 22.8756 8.6226 23.58 11.1088 23.58C19.1061 23.58 23.4569 16.9916 23.4569 11.2319C23.4569 11.0247 23.4569 10.8589 23.4569 10.6518Z" stroke="currentColor" stroke-width="0.75"/>
</svg>
